<svg xmlns="http://www.w3.org/2000/svg"
width="24"
height="24"
viewBox="0 0 24 24"
fill="currentColor">

<path d="M12 .5C5.65.5.5 5.65.5 12A11.5 11.5 0 0 0 8.36 22.9c.58.1.79-.25.79-.56v-2.16c-3.2.7-3.88-1.35-3.88-1.35-.52-1.33-1.28-1.68-1.28-1.68-1.05-.72.08-.71.08-.71 1.16.08 1.77 1.2 1.77 1.2 1.03 1.76 2.69 1.25 3.34.96.1-.74.4-1.25.72-1.54-2.55-.29-5.23-1.28-5.23-5.7 0-1.26.45-2.3 1.19-3.11-.12-.29-.52-1.47.11-3.06 0 0 .97-.31 3.18 1.19a10.9 10.9 0 0 1 5.79 0c2.21-1.5 3.18-1.19 3.18-1.19.63 1.59.23 2.77.11 3.06.74.81 1.19 1.85 1.19 3.11 0 4.43-2.69 5.4-5.25 5.69.41.36.77 1.08.77 2.19v3.24c0 .31.21.67.8.56A11.5 11.5 0 0 0 23.5 12C23.5 5.65 18.35.5 12 .5z"/>

</svg>